<svg xmlns="http://www.w3.org/2000/svg" version="1.1" xmlns:xlink="http://www.w3.org/1999/xlink" xmlns:svgjs="http://svgjs.com/svgjs" width="512" height="512" x="0" y="0" viewBox="0 0 512 512" style="enable-background:new 0 0 512 512" xml:space="preserve"><g><path d="M256 463.5a5 5 0 0 1-5-5v-405a5 5 0 0 1 10 0v405a5 5 0 0 1-5 5zm31.5-36a5 5 0 0 1-5-5v-135a5 5 0 0 1 5-5h135c2.762 0 5 2.238 5 5s-2.238 5-5 5h-130v130a5 5 0 0 1-5 5zm-63 0a5 5 0 0 1-5-5v-130h-130a5 5 0 1 1 0-10h135a5 5 0 0 1 5 5v135a5 5 0 0 1-5 5zM319 405a5 5 0 0 1-5-5v-76.5a5 5 0 0 1 5-5h76.5c2.762 0 5 2.238 5 5s-2.238 5-5 5H324V400a5 5 0 0 1-5 5zm-130.5-4.5a5 5 0 0 1-5-5V324H112a5 5 0 1 1 0-10h76.5a5 5 0 0 1 5 5v76.5a5 5 0 0 1-5 5zm270-139.5H287.504a5 5 0 1 1 0-10H458.5a5 5 0 1 1 0 10zm-234.004 0H53.5a5 5 0 1 1 0-10h170.996a5 5 0 0 1 0 10zM422.5 229.5h-135a5 5 0 0 1-5-5v-135a5 5 0 1 1 10 0v130h130a5 5 0 1 1 0 10zm-198 0h-135a5 5 0 0 1 0-10h130v-130a5 5 0 0 1 10 0v135a5 5 0 0 1-5 5zM400 198h-76.5a5 5 0 0 1-5-5v-76.5a5 5 0 1 1 10 0V188H400a5 5 0 1 1 0 10zm-207-4.5h-76.5a5 5 0 0 1 0-10H188V112a5 5 0 0 1 10 0v76.5a5 5 0 0 1-5 5z" fill="#ffffff" data-original="#000000"></path></g></svg>