<svg xmlns="http://www.w3.org/2000/svg" version="1.1" xmlns:xlink="http://www.w3.org/1999/xlink" xmlns:svgjs="http://svgjs.com/svgjs" width="512" height="512" x="0" y="0" viewBox="0 0 512 512" style="enable-background:new 0 0 512 512" xml:space="preserve" class=""><g><path d="M256 463.5c-114.416 0-207.5-93.084-207.5-207.5S141.584 48.5 256 48.5 463.5 141.584 463.5 256 370.416 463.5 256 463.5zM74.894 334.774C105.375 404.589 175.082 453.5 256 453.5c108.902 0 197.5-88.598 197.5-197.5 0-66.72-54.28-121-121-121-24.623 0-48.091 7.282-68.266 21.123C293.721 181.052 310.5 217.087 310.5 256c0 41.146-18.758 79.072-51.465 104.056l-.011.008C235.976 377.687 208.478 387 179.5 387c-42.69 0-80.675-20.524-104.606-52.226zM58.5 256c0 66.72 54.28 121 121 121 24.623 0 48.091-7.282 68.266-21.123C218.279 330.948 201.5 294.913 201.5 256c0-41.146 18.758-79.072 51.465-104.056l.011-.008C276.025 134.314 303.523 125 332.5 125c42.69 0 80.675 20.524 104.606 52.226C406.625 107.411 336.919 58.5 256 58.5 147.098 58.5 58.5 147.098 58.5 256zM256 162.285c-28.331 23.066-44.5 57.004-44.5 93.715s16.169 70.648 44.5 93.715c28.331-23.066 44.5-57.004 44.5-93.715s-16.169-70.649-44.5-93.715z" fill="#ffffff" data-original="#000000"></path></g></svg>