<svg xmlns="http://www.w3.org/2000/svg" version="1.1" xmlns:xlink="http://www.w3.org/1999/xlink" xmlns:svgjs="http://svgjs.com/svgjs" width="512" height="512" x="0" y="0" viewBox="0 0 512 512" style="enable-background:new 0 0 512 512" xml:space="preserve"><g><path d="M256 471.012a5.001 5.001 0 0 1-3.536-1.465l-35.004-35.008a4.998 4.998 0 0 1 0-7.07l206.476-206.473-27.933-27.933-206.471 206.476a5 5 0 0 1-7.072 0l-35-35a4.998 4.998 0 0 1 0-7.07l206.472-206.477-27.929-27.929-206.475 206.472a5.001 5.001 0 0 1-7.071.001l-35.004-35a5.001 5.001 0 0 1-.001-7.071L283.929 80.988 256 53.06 49.524 259.531a5 5 0 0 1-7.071 0 5 5 0 0 1 0-7.071L252.465 42.453a5.001 5.001 0 0 1 7.071 0l35 35a5 5 0 0 1 0 7.071L88.06 291l27.933 27.929L322.47 112.457a5 5 0 0 1 7.07 0l35 35a5 5 0 0 1 0 7.071L158.067 361.004l27.929 27.929 206.473-206.476a4.998 4.998 0 0 1 7.07 0l35.004 35.004a5 5 0 0 1 0 7.072L228.067 431.004 256 458.94l206.477-206.48a5 5 0 0 1 7.07 7.071L259.535 469.547a4.997 4.997 0 0 1-3.535 1.465z" fill="#ffffff" data-original="#000000"></path></g></svg>