<svg xmlns="http://www.w3.org/2000/svg" version="1.1" xmlns:xlink="http://www.w3.org/1999/xlink" xmlns:svgjs="http://svgjs.com/svgjs" width="512" height="512" x="0" y="0" viewBox="0 0 512 512" style="enable-background:new 0 0 512 512" xml:space="preserve" class=""><g><path d="M463.381 426.045a4.588 4.588 0 0 0-.641-1.739L260.342 82.477c-1.894-3.2-6.847-3.264-8.701 0L49.242 424.306c-1.909 3.225.43 7.799 4.34 7.638H458.4l.086.001c3.1-.001 5.33-3.048 4.895-5.9zm-207.39-223.122 90.328 156.021H165.664zm-5-99.721v88.399l-97.688 168.734-85.308 51.927zM71.322 421.943l87.072-53h195.195l87.071 53zm287.358-61.608-97.688-168.734v-88.399l182.996 309.06z" fill="#ffffff" data-original="#000000"></path></g></svg>